<svg width="140" height="57" viewBox="0 0 140 57" fill="none" xmlns="http://www.w3.org/2000/svg">
<path d="M0 31.5V0H22.5V4.5H27V9H31.5V22.5H27V27H22.5V31.5H0ZM9 27H18V22.5H22.5V9H18V4.5H9V27ZM72 31.5V0H81V4.5H85.5V9H90V13.5H94.5V0H103.5V31.5H94.5V22.5H90V18H85.5V13.5H81V31.5H72ZM112.5 31.5V27H108V4.5H112.5V0H135V4.5H139.5V27H135V31.5H112.5ZM117 27H130.5V4.5H117V27Z" fill="#EB5757"/>
<path d="M30 57V54H27V51H24V42H27V39H30V36H45V39H33V42H30V51H33V54H39V48H36V45H45V57H30ZM48 57V42H51V39H54V36H63V39H66V42H69V57H63V51H54V57H48ZM54 48H63V42H60V39H57V42H54V48ZM72 57V36H78V39H81V42H84V39H87V36H93V57H87V45H84V51H81V45H78V57H72ZM96 57V36H117V39H102V45H114V48H102V54H117V57H96Z" fill="#4F4F4F"/>
</svg>
