<svg width="111" height="51" viewBox="0 0 111 51" fill="none" xmlns="http://www.w3.org/2000/svg">
<path d="M0.784219 1.407L6.19622 1.489H11.7722C16.8562 1.489 20.9016 2.76 23.9082 5.302C26.9422 7.81667 28.4592 11.1513 28.4592 15.306C28.4592 19.4607 26.9559 22.7817 23.9492 25.269C20.9426 27.7563 17.1432 29 12.5512 29H7.75422L0.784219 29.082C0.565552 29.082 0.456219 28.8497 0.456219 28.385C0.456219 27.9203 0.565552 27.688 0.784219 27.688H2.54722C3.23055 27.688 3.68155 27.565 3.90022 27.319C4.11889 27.0457 4.22822 26.54 4.22822 25.802V6.286C4.22822 3.96266 3.94122 2.801 3.36722 2.801H0.784219C0.538219 2.801 0.415219 2.56866 0.415219 2.104C0.415219 1.63933 0.538219 1.407 0.784219 1.407ZM9.88622 3.129C8.92955 3.129 8.45122 3.68933 8.45122 4.81V23.752C8.45122 26.1573 8.73822 27.36 9.31222 27.36L12.6742 27.319C16.0636 27.2643 18.7559 26.253 20.7512 24.285C22.7739 22.2897 23.7852 19.5017 23.7852 15.921C23.7852 12.313 22.6782 9.361 20.4642 7.065C18.2502 4.74167 14.7652 3.42967 10.0092 3.129C9.95455 3.129 9.91355 3.129 9.88622 3.129ZM37.3046 1.448L43.0446 1.325C43.2633 1.325 43.3726 1.55733 43.3726 2.022C43.3726 2.48667 43.2633 2.719 43.0446 2.719H41.2816C40.5983 2.719 40.1473 2.85567 39.9286 3.129C39.71 3.375 39.6006 3.867 39.6006 4.605V24.039C39.6006 26.4443 39.8876 27.647 40.4616 27.647H42.8396C43.0583 27.647 43.1676 27.8793 43.1676 28.344C43.1676 28.7813 43.0583 29 42.8396 29L37.6736 28.959L31.9336 29.082C31.715 29.082 31.6056 28.8497 31.6056 28.385C31.6056 27.9203 31.715 27.688 31.9336 27.688H33.6966C34.38 27.688 34.831 27.565 35.0496 27.319C35.2683 27.0457 35.3776 26.54 35.3776 25.802V6.368C35.3776 3.96266 35.0906 2.76 34.5166 2.76H32.1386C31.92 2.76 31.8106 2.54133 31.8106 2.104C31.8106 1.63933 31.92 1.407 32.1386 1.407L37.3046 1.448ZM72.474 1.489L77.312 1.366C77.558 1.366 77.681 1.59833 77.681 2.063C77.681 2.50033 77.558 2.719 77.312 2.719H75.385C74.8383 2.719 74.483 2.842 74.319 3.088C73.6903 4.01733 73.3487 12.8187 73.294 29.492C73.2393 29.6833 73.0207 29.779 72.638 29.779C72.2553 29.779 71.9683 29.6833 71.777 29.492C63.7957 20.0073 57.509 12.477 52.917 6.901H52.753C52.8623 16.8503 52.9443 22.7953 52.999 24.736C53.0537 26.6767 53.3407 27.647 53.86 27.647H56.115C56.361 27.647 56.484 27.8793 56.484 28.344C56.484 28.7813 56.361 29 56.115 29L51.769 28.959L46.89 29.082C46.6987 29.082 46.603 28.8497 46.603 28.385C46.603 27.9203 46.6987 27.688 46.89 27.688H48.243C48.8717 27.688 49.3227 27.6197 49.596 27.483C49.8693 27.319 50.0197 27.0183 50.047 26.581C50.5937 20.431 50.867 13.0783 50.867 4.523L50.58 4.195C50.0333 3.56633 49.5413 3.17 49.104 3.006C48.694 2.81467 47.915 2.719 46.767 2.719C46.603 2.719 46.521 2.50033 46.521 2.063C46.521 1.62567 46.603 1.407 46.767 1.407L54.188 1.489C63.9187 13.6797 69.5767 20.841 71.162 22.973H71.326C71.162 12.1217 71.0253 6.04 70.916 4.728C70.8067 3.416 70.4923 2.76 69.973 2.76H68.005C67.759 2.76 67.636 2.54133 67.636 2.104C67.636 1.63933 67.759 1.407 68.005 1.407L72.474 1.489ZM85.2378 5.138C88.1625 2.35 91.6748 0.955999 95.7748 0.955999C99.8748 0.955999 103.387 2.35 106.312 5.138C109.236 7.926 110.699 11.3017 110.699 15.265C110.699 19.201 109.236 22.563 106.312 25.351C103.387 28.139 99.8748 29.533 95.7748 29.533C91.6748 29.533 88.1625 28.139 85.2378 25.351C82.3131 22.563 80.8508 19.201 80.8508 15.265C80.8508 11.3017 82.3131 7.926 85.2378 5.138ZM102.786 6.409C100.982 4.031 98.6448 2.842 95.7748 2.842C92.9048 2.842 90.5541 4.031 88.7228 6.409C86.9188 8.787 86.0168 11.739 86.0168 15.265C86.0168 18.7637 86.9188 21.702 88.7228 24.08C90.5541 26.458 92.9048 27.647 95.7748 27.647C98.6448 27.647 100.982 26.458 102.786 24.08C104.617 21.702 105.533 18.7637 105.533 15.265C105.533 11.739 104.617 8.787 102.786 6.409Z" fill="#F2994A"/>
<path d="M39.2811 44.984L41.7531 44.936C41.8651 44.936 41.9211 45.056 41.9211 45.296C41.9211 45.536 41.8651 45.656 41.7531 45.656H41.2251C40.9371 45.656 40.7371 45.712 40.6251 45.824C40.5291 45.936 40.4811 46.144 40.4811 46.448C40.4811 48.208 40.5211 49.336 40.6011 49.832C40.6971 50.328 40.7451 50.608 40.7451 50.672C40.7451 50.816 40.6651 50.888 40.5051 50.888C40.3771 50.888 40.2251 50.664 40.0491 50.216C39.8891 49.784 39.7371 49.568 39.5931 49.568C39.5611 49.568 39.3771 49.632 39.0411 49.76C38.0811 50.128 37.1531 50.312 36.2571 50.312C34.2251 50.312 32.5451 49.816 31.2171 48.824C29.9051 47.832 29.2491 46.384 29.2491 44.48C29.2491 42.576 29.9531 41.048 31.3611 39.896C32.7851 38.728 34.4811 38.144 36.4491 38.144C37.3131 38.144 38.2571 38.36 39.2811 38.792V38.408C39.2811 38.28 39.3851 38.216 39.5931 38.216C39.8011 38.216 39.9051 38.28 39.9051 38.408C39.9051 39.4 39.9611 40.28 40.0731 41.048C40.0891 41.096 40.0571 41.144 39.9771 41.192C39.9131 41.224 39.8091 41.24 39.6651 41.24C39.5211 41.24 39.4331 41.184 39.4011 41.072L39.2811 40.304C38.3371 39.456 37.2571 39.032 36.0411 39.032C34.8411 39.032 33.8091 39.496 32.9451 40.424C32.0971 41.352 31.6731 42.6 31.6731 44.168C31.6731 45.736 32.1051 47.008 32.9691 47.984C33.8331 48.96 34.9211 49.448 36.2331 49.448C36.6491 49.448 37.0411 49.4 37.4091 49.304C37.7771 49.192 38.0411 49.08 38.2011 48.968L38.4411 48.8V47.192C38.4411 46.168 38.3211 45.656 38.0811 45.656H36.2331C36.1211 45.656 36.0651 45.544 36.0651 45.32C36.0651 45.08 36.1211 44.96 36.2331 44.96L39.2811 44.984ZM43.5516 50L41.6556 50.048C41.5436 50.048 41.4876 49.944 41.4876 49.736C41.4876 49.528 41.5436 49.424 41.6556 49.424H42.4236C42.5996 49.424 42.7276 49.352 42.8076 49.208C43.1756 48.6 43.9116 46.984 45.0156 44.36C46.1196 41.72 46.9116 39.72 47.3916 38.36C47.4556 38.216 47.6076 38.144 47.8476 38.144C48.1036 38.144 48.2636 38.224 48.3276 38.384C48.5196 39.184 49.0796 40.696 50.0076 42.92C50.9516 45.144 51.7756 47 52.4796 48.488C52.6716 48.872 52.8476 49.12 53.0076 49.232C53.1676 49.344 53.4156 49.4 53.7516 49.4C53.8476 49.4 53.8956 49.512 53.8956 49.736C53.8956 49.944 53.8556 50.048 53.7756 50.048L51.4716 50L48.8796 50.048C48.7836 50.048 48.7356 49.944 48.7356 49.736C48.7356 49.528 48.7836 49.424 48.8796 49.424H50.0316C50.2076 49.424 50.2956 49.352 50.2956 49.208C50.2956 49.192 49.8476 47.96 48.9516 45.512H45.6156C44.8316 47.448 44.4396 48.584 44.4396 48.92C44.4396 49.24 44.5356 49.4 44.7276 49.4H45.7116C45.8396 49.4 45.9036 49.512 45.9036 49.736C45.9036 49.944 45.8556 50.048 45.7596 50.048L43.5516 50ZM48.6396 44.696C48.5916 44.552 48.1756 43.336 47.3916 41.048H47.3196C46.9356 42.152 46.4796 43.368 45.9516 44.696H48.6396ZM66.2422 38.48L69.3863 38.408C69.5143 38.408 69.5783 38.528 69.5783 38.768C69.5783 38.992 69.5143 39.104 69.3863 39.104H68.7863C68.4343 39.104 68.2583 39.4 68.2583 39.992C68.2583 40.248 68.3703 41.512 68.5943 43.784C68.8343 46.056 68.9863 47.536 69.0503 48.224C69.1303 48.912 69.2743 49.256 69.4823 49.256H70.5383C70.6823 49.256 70.7543 49.384 70.7543 49.64C70.7543 49.88 70.6903 50 70.5623 50L68.2103 49.976L65.7863 50.048C65.6743 50.048 65.6183 49.928 65.6183 49.688C65.6183 49.448 65.6663 49.328 65.7623 49.328H66.5063C66.9383 49.328 67.1383 49.144 67.1063 48.776C66.7863 44.296 66.6103 41.76 66.5782 41.168H66.4823C64.9943 44.304 63.7623 47.144 62.7863 49.688C62.7223 49.832 62.5623 49.904 62.3063 49.904C62.0663 49.904 61.9143 49.824 61.8503 49.664C61.4183 48.544 60.2503 45.648 58.3463 40.976H58.2743C58.0343 44.288 57.9143 46.248 57.9143 46.856C57.9143 47.464 57.9143 47.792 57.9143 47.84C57.9143 48.784 58.0583 49.256 58.3463 49.256H59.0903C59.2503 49.256 59.3303 49.384 59.3303 49.64C59.3303 49.88 59.2503 50 59.0903 50L57.1703 49.976L54.8663 50.048C54.7703 50.048 54.7223 49.928 54.7223 49.688C54.7223 49.448 54.7783 49.328 54.8903 49.328H55.4663C55.8503 49.328 56.0823 49.288 56.1623 49.208C56.2583 49.112 56.3223 48.992 56.3543 48.848C56.4663 48.192 56.6343 46.768 56.8583 44.576C57.0983 42.384 57.2183 41.04 57.2183 40.544C57.2343 40.032 57.2023 39.672 57.1223 39.464C57.0583 39.256 56.9303 39.152 56.7383 39.152H56.0663C55.9703 39.152 55.9223 39.032 55.9223 38.792C55.9223 38.536 55.9703 38.408 56.0663 38.408L58.3703 38.48H59.4983C59.6423 38.896 60.6983 41.792 62.6663 47.168H62.7623C63.8823 44.768 65.0423 41.872 66.2422 38.48ZM72.6838 38.408L75.1318 38.456H80.0998V38.072C80.0998 37.976 80.2038 37.928 80.4118 37.928C80.6358 37.928 80.7478 37.976 80.7478 38.072C80.7478 39.336 80.8038 40.24 80.9158 40.784C80.9478 40.88 80.8598 40.928 80.6518 40.928C80.3798 40.928 80.2438 40.88 80.2438 40.784C80.0198 40.048 79.8038 39.632 79.5958 39.536C78.9238 39.296 77.9478 39.176 76.6678 39.176C76.4438 39.192 76.2918 39.256 76.2118 39.368C76.1318 39.48 76.0918 39.68 76.0918 39.968V43.904C78.0278 43.84 79.0918 43.752 79.2838 43.64L79.4518 42.632C79.4838 42.552 79.5958 42.512 79.7878 42.512C79.9958 42.512 80.0998 42.568 80.0998 42.68C80.0358 43.144 80.0038 43.664 80.0038 44.24C80.0038 44.8 80.0358 45.312 80.0998 45.776C80.0998 45.872 79.9878 45.92 79.7638 45.92C79.5558 45.92 79.4518 45.888 79.4518 45.824L79.2598 44.792C79.0678 44.68 78.0118 44.592 76.0918 44.528V47.432C76.0918 48.632 76.2518 49.232 76.5718 49.232H77.3398C79.0998 49.2 80.3158 48.952 80.9878 48.488L81.1078 47.552C81.1398 47.456 81.2198 47.408 81.3478 47.408C81.4918 47.408 81.5878 47.408 81.6358 47.408C81.7318 47.44 81.7798 47.488 81.7798 47.552C81.6838 48.224 81.6358 49.168 81.6358 50.384C81.6358 50.464 81.5238 50.504 81.2998 50.504C81.0918 50.504 80.9878 50.464 80.9878 50.384V50H76.7158L72.6358 50.048C72.5238 50.048 72.4678 49.928 72.4678 49.688C72.4678 49.448 72.5158 49.328 72.6118 49.328H73.6918C73.8678 49.328 73.9718 49.296 74.0038 49.232C74.0358 49.152 74.0518 48.952 74.0518 48.632V41.072C74.0518 39.792 73.8918 39.152 73.5718 39.152H72.7078C72.5158 39.152 72.4198 39.032 72.4198 38.792C72.4198 38.536 72.5078 38.408 72.6838 38.408Z" fill="#333333"/>
</svg>
